<svg id="baseline-local_see-24px" xmlns="http://www.w3.org/2000/svg" width="80" height="80" viewBox="0 0 80 80">
  <path id="Path_1905" data-name="Path 1905" d="M0,0H80V80H0Z" fill="#858585"/>
  <g id="outline-person-24px" transform="translate(16 16)">
    <g id="Bounding_Boxes">
      <path id="Path_3493" data-name="Path 3493" d="M0,0H48V48H0Z" fill="none"/>
    </g>
    <g id="Outline" transform="translate(8 8)">
      <path id="Path_3494" data-name="Path 3494" d="M20,8a4,4,0,1,1-4,4,4.012,4.012,0,0,1,4-4m0,20c5.4,0,11.6,2.58,12,4H8c.46-1.44,6.62-4,12-4M20,4a8,8,0,1,0,8,8,8,8,0,0,0-8-8Zm0,20c-5.34,0-16,2.68-16,8v4H36V32c0-5.32-10.66-8-16-8Z" transform="translate(-4 -4)" fill="#f5f5f5"/>
    </g>
  </g>
</svg>
